<svg xmlns="http://www.w3.org/2000/svg" xml:space="preserve" id="_x32_" width="800" height="800" fill="#000" viewBox="0 0 512 512"><path id="SVGRepo_iconCarrier" d="M367.781 37.656c-43.031 0-83.906 19.125-111.781 49.5-27.875-30.375-68.75-49.5-111.781-49.5-79.531 0-144.219 65.5-144.219 146 0 54.234 20.469 189.531 210 274.703 10.906 4.922 31.719 13.109 32.328 13.344 4.359 1.766 8.953 2.641 13.672 2.641s9.313-.875 13.672-2.641c.609-.234 21.422-8.422 32.328-13.344 189.531-85.172 210-220.469 210-274.703 0-80.5-64.687-146-144.219-146m-92.406 361.453c-4.797 2.172-12.672 5.422-19.375 8.109-6.703-2.688-14.578-5.938-19.375-8.109C81.688 329.5 64.969 225.25 64.969 183.656c0-44.688 35.547-81.047 79.25-81.047 36.344 0 72.781 33.984 90.734 62.984 8.078 13.047 12.859 21.641 21.047 21.656 8.188-.016 12.969-8.609 21.047-21.656 17.953-29 54.391-62.984 90.734-62.984 43.703 0 79.25 36.359 79.25 81.047 0 41.594-16.718 145.844-171.656 215.453" style="fill:#c06080"/></svg>